<svg width="107" height="51" viewBox="0 0 107 51" fill="none" xmlns="http://www.w3.org/2000/svg">
<path d="M2 1C2 1.55228 1.55228 2 1 2C0.447715 2 0 1.55228 0 1C0 0.447715 0.447715 0 1 0C1.55228 0 2 0.447715 2 1Z" fill="#9FBA3C"/>
<path d="M58 1C58 1.55228 57.5523 2 57 2C56.4477 2 56 1.55228 56 1C56 0.447715 56.4477 0 57 0C57.5523 0 58 0.447715 58 1Z" fill="#9FBA3C"/>
<path d="M30 1C30 1.55228 29.5523 2 29 2C28.4477 2 28 1.55228 28 1C28 0.447715 28.4477 0 29 0C29.5523 0 30 0.447715 30 1Z" fill="#9FBA3C"/>
<path d="M86 1C86 1.55228 85.5523 2 85 2C84.4477 2 84 1.55228 84 1C84 0.447715 84.4477 0 85 0C85.5523 0 86 0.447715 86 1Z" fill="#9FBA3C"/>
<path d="M16 1C16 1.55228 15.5523 2 15 2C14.4477 2 14 1.55228 14 1C14 0.447715 14.4477 0 15 0C15.5523 0 16 0.447715 16 1Z" fill="#9FBA3C"/>
<path d="M72 1C72 1.55228 71.5523 2 71 2C70.4477 2 70 1.55228 70 1C70 0.447715 70.4477 0 71 0C71.5523 0 72 0.447715 72 1Z" fill="#9FBA3C"/>
<path d="M44 1C44 1.55228 43.5523 2 43 2C42.4477 2 42 1.55228 42 1C42 0.447715 42.4477 0 43 0C43.5523 0 44 0.447715 44 1Z" fill="#9FBA3C"/>
<path d="M100 1C100 1.55228 99.5523 2 99 2C98.4477 2 98 1.55228 98 1C98 0.447715 98.4477 0 99 0C99.5523 0 100 0.447715 100 1Z" fill="#9FBA3C"/>
<path d="M9 1C9 1.55228 8.55228 2 8 2C7.44772 2 7 1.55228 7 1C7 0.447715 7.44772 0 8 0C8.55228 0 9 0.447715 9 1Z" fill="#9FBA3C"/>
<path d="M65 1C65 1.55228 64.5523 2 64 2C63.4477 2 63 1.55228 63 1C63 0.447715 63.4477 0 64 0C64.5523 0 65 0.447715 65 1Z" fill="#9FBA3C"/>
<path d="M37 1C37 1.55228 36.5523 2 36 2C35.4477 2 35 1.55228 35 1C35 0.447715 35.4477 0 36 0C36.5523 0 37 0.447715 37 1Z" fill="#9FBA3C"/>
<path d="M93 1C93 1.55228 92.5523 2 92 2C91.4477 2 91 1.55228 91 1C91 0.447715 91.4477 0 92 0C92.5523 0 93 0.447715 93 1Z" fill="#9FBA3C"/>
<path d="M23 1C23 1.55228 22.5523 2 22 2C21.4477 2 21 1.55228 21 1C21 0.447715 21.4477 0 22 0C22.5523 0 23 0.447715 23 1Z" fill="#9FBA3C"/>
<path d="M79 1C79 1.55228 78.5523 2 78 2C77.4477 2 77 1.55228 77 1C77 0.447715 77.4477 0 78 0C78.5523 0 79 0.447715 79 1Z" fill="#9FBA3C"/>
<path d="M51 1C51 1.55228 50.5523 2 50 2C49.4477 2 49 1.55228 49 1C49 0.447715 49.4477 0 50 0C50.5523 0 51 0.447715 51 1Z" fill="#9FBA3C"/>
<path d="M107 1C107 1.55228 106.552 2 106 2C105.448 2 105 1.55228 105 1C105 0.447715 105.448 0 106 0C106.552 0 107 0.447715 107 1Z" fill="#9FBA3C"/>
<path d="M2 29C2 29.5523 1.55228 30 1 30C0.447715 30 0 29.5523 0 29C0 28.4477 0.447715 28 1 28C1.55228 28 2 28.4477 2 29Z" fill="#9FBA3C"/>
<path d="M58 29C58 29.5523 57.5523 30 57 30C56.4477 30 56 29.5523 56 29C56 28.4477 56.4477 28 57 28C57.5523 28 58 28.4477 58 29Z" fill="#9FBA3C"/>
<path d="M30 29C30 29.5523 29.5523 30 29 30C28.4477 30 28 29.5523 28 29C28 28.4477 28.4477 28 29 28C29.5523 28 30 28.4477 30 29Z" fill="#9FBA3C"/>
<path d="M86 29C86 29.5523 85.5523 30 85 30C84.4477 30 84 29.5523 84 29C84 28.4477 84.4477 28 85 28C85.5523 28 86 28.4477 86 29Z" fill="#9FBA3C"/>
<path d="M16 29C16 29.5523 15.5523 30 15 30C14.4477 30 14 29.5523 14 29C14 28.4477 14.4477 28 15 28C15.5523 28 16 28.4477 16 29Z" fill="#9FBA3C"/>
<path d="M72 29C72 29.5523 71.5523 30 71 30C70.4477 30 70 29.5523 70 29C70 28.4477 70.4477 28 71 28C71.5523 28 72 28.4477 72 29Z" fill="#9FBA3C"/>
<path d="M44 29C44 29.5523 43.5523 30 43 30C42.4477 30 42 29.5523 42 29C42 28.4477 42.4477 28 43 28C43.5523 28 44 28.4477 44 29Z" fill="#9FBA3C"/>
<path d="M100 29C100 29.5523 99.5523 30 99 30C98.4477 30 98 29.5523 98 29C98 28.4477 98.4477 28 99 28C99.5523 28 100 28.4477 100 29Z" fill="#9FBA3C"/>
<path d="M9 29C9 29.5523 8.55228 30 8 30C7.44772 30 7 29.5523 7 29C7 28.4477 7.44772 28 8 28C8.55228 28 9 28.4477 9 29Z" fill="#9FBA3C"/>
<path d="M65 29C65 29.5523 64.5523 30 64 30C63.4477 30 63 29.5523 63 29C63 28.4477 63.4477 28 64 28C64.5523 28 65 28.4477 65 29Z" fill="#9FBA3C"/>
<path d="M37 29C37 29.5523 36.5523 30 36 30C35.4477 30 35 29.5523 35 29C35 28.4477 35.4477 28 36 28C36.5523 28 37 28.4477 37 29Z" fill="#9FBA3C"/>
<path d="M93 29C93 29.5523 92.5523 30 92 30C91.4477 30 91 29.5523 91 29C91 28.4477 91.4477 28 92 28C92.5523 28 93 28.4477 93 29Z" fill="#9FBA3C"/>
<path d="M23 29C23 29.5523 22.5523 30 22 30C21.4477 30 21 29.5523 21 29C21 28.4477 21.4477 28 22 28C22.5523 28 23 28.4477 23 29Z" fill="#9FBA3C"/>
<path d="M79 29C79 29.5523 78.5523 30 78 30C77.4477 30 77 29.5523 77 29C77 28.4477 77.4477 28 78 28C78.5523 28 79 28.4477 79 29Z" fill="#9FBA3C"/>
<path d="M51 29C51 29.5523 50.5523 30 50 30C49.4477 30 49 29.5523 49 29C49 28.4477 49.4477 28 50 28C50.5523 28 51 28.4477 51 29Z" fill="#9FBA3C"/>
<path d="M107 29C107 29.5523 106.552 30 106 30C105.448 30 105 29.5523 105 29C105 28.4477 105.448 28 106 28C106.552 28 107 28.4477 107 29Z" fill="#9FBA3C"/>
<path d="M2 15C2 15.5523 1.55228 16 1 16C0.447715 16 0 15.5523 0 15C0 14.4477 0.447715 14 1 14C1.55228 14 2 14.4477 2 15Z" fill="#9FBA3C"/>
<path d="M58 15C58 15.5523 57.5523 16 57 16C56.4477 16 56 15.5523 56 15C56 14.4477 56.4477 14 57 14C57.5523 14 58 14.4477 58 15Z" fill="#9FBA3C"/>
<path d="M30 15C30 15.5523 29.5523 16 29 16C28.4477 16 28 15.5523 28 15C28 14.4477 28.4477 14 29 14C29.5523 14 30 14.4477 30 15Z" fill="#9FBA3C"/>
<path d="M86 15C86 15.5523 85.5523 16 85 16C84.4477 16 84 15.5523 84 15C84 14.4477 84.4477 14 85 14C85.5523 14 86 14.4477 86 15Z" fill="#9FBA3C"/>
<path d="M16 15C16 15.5523 15.5523 16 15 16C14.4477 16 14 15.5523 14 15C14 14.4477 14.4477 14 15 14C15.5523 14 16 14.4477 16 15Z" fill="#9FBA3C"/>
<path d="M72 15C72 15.5523 71.5523 16 71 16C70.4477 16 70 15.5523 70 15C70 14.4477 70.4477 14 71 14C71.5523 14 72 14.4477 72 15Z" fill="#9FBA3C"/>
<path d="M44 15C44 15.5523 43.5523 16 43 16C42.4477 16 42 15.5523 42 15C42 14.4477 42.4477 14 43 14C43.5523 14 44 14.4477 44 15Z" fill="#9FBA3C"/>
<path d="M100 15C100 15.5523 99.5523 16 99 16C98.4477 16 98 15.5523 98 15C98 14.4477 98.4477 14 99 14C99.5523 14 100 14.4477 100 15Z" fill="#9FBA3C"/>
<path d="M9 15C9 15.5523 8.55228 16 8 16C7.44772 16 7 15.5523 7 15C7 14.4477 7.44772 14 8 14C8.55228 14 9 14.4477 9 15Z" fill="#9FBA3C"/>
<path d="M65 15C65 15.5523 64.5523 16 64 16C63.4477 16 63 15.5523 63 15C63 14.4477 63.4477 14 64 14C64.5523 14 65 14.4477 65 15Z" fill="#9FBA3C"/>
<path d="M37 15C37 15.5523 36.5523 16 36 16C35.4477 16 35 15.5523 35 15C35 14.4477 35.4477 14 36 14C36.5523 14 37 14.4477 37 15Z" fill="#9FBA3C"/>
<path d="M93 15C93 15.5523 92.5523 16 92 16C91.4477 16 91 15.5523 91 15C91 14.4477 91.4477 14 92 14C92.5523 14 93 14.4477 93 15Z" fill="#9FBA3C"/>
<path d="M23 15C23 15.5523 22.5523 16 22 16C21.4477 16 21 15.5523 21 15C21 14.4477 21.4477 14 22 14C22.5523 14 23 14.4477 23 15Z" fill="#9FBA3C"/>
<path d="M79 15C79 15.5523 78.5523 16 78 16C77.4477 16 77 15.5523 77 15C77 14.4477 77.4477 14 78 14C78.5523 14 79 14.4477 79 15Z" fill="#9FBA3C"/>
<path d="M51 15C51 15.5523 50.5523 16 50 16C49.4477 16 49 15.5523 49 15C49 14.4477 49.4477 14 50 14C50.5523 14 51 14.4477 51 15Z" fill="#9FBA3C"/>
<path d="M107 15C107 15.5523 106.552 16 106 16C105.448 16 105 15.5523 105 15C105 14.4477 105.448 14 106 14C106.552 14 107 14.4477 107 15Z" fill="#9FBA3C"/>
<path d="M2 43C2 43.5523 1.55228 44 1 44C0.447715 44 0 43.5523 0 43C0 42.4477 0.447715 42 1 42C1.55228 42 2 42.4477 2 43Z" fill="#9FBA3C"/>
<path d="M58 43C58 43.5523 57.5523 44 57 44C56.4477 44 56 43.5523 56 43C56 42.4477 56.4477 42 57 42C57.5523 42 58 42.4477 58 43Z" fill="#9FBA3C"/>
<path d="M30 43C30 43.5523 29.5523 44 29 44C28.4477 44 28 43.5523 28 43C28 42.4477 28.4477 42 29 42C29.5523 42 30 42.4477 30 43Z" fill="#9FBA3C"/>
<path d="M86 43C86 43.5523 85.5523 44 85 44C84.4477 44 84 43.5523 84 43C84 42.4477 84.4477 42 85 42C85.5523 42 86 42.4477 86 43Z" fill="#9FBA3C"/>
<path d="M16 43C16 43.5523 15.5523 44 15 44C14.4477 44 14 43.5523 14 43C14 42.4477 14.4477 42 15 42C15.5523 42 16 42.4477 16 43Z" fill="#9FBA3C"/>
<path d="M72 43C72 43.5523 71.5523 44 71 44C70.4477 44 70 43.5523 70 43C70 42.4477 70.4477 42 71 42C71.5523 42 72 42.4477 72 43Z" fill="#9FBA3C"/>
<path d="M44 43C44 43.5523 43.5523 44 43 44C42.4477 44 42 43.5523 42 43C42 42.4477 42.4477 42 43 42C43.5523 42 44 42.4477 44 43Z" fill="#9FBA3C"/>
<path d="M100 43C100 43.5523 99.5523 44 99 44C98.4477 44 98 43.5523 98 43C98 42.4477 98.4477 42 99 42C99.5523 42 100 42.4477 100 43Z" fill="#9FBA3C"/>
<path d="M9 43C9 43.5523 8.55228 44 8 44C7.44772 44 7 43.5523 7 43C7 42.4477 7.44772 42 8 42C8.55228 42 9 42.4477 9 43Z" fill="#9FBA3C"/>
<path d="M65 43C65 43.5523 64.5523 44 64 44C63.4477 44 63 43.5523 63 43C63 42.4477 63.4477 42 64 42C64.5523 42 65 42.4477 65 43Z" fill="#9FBA3C"/>
<path d="M37 43C37 43.5523 36.5523 44 36 44C35.4477 44 35 43.5523 35 43C35 42.4477 35.4477 42 36 42C36.5523 42 37 42.4477 37 43Z" fill="#9FBA3C"/>
<path d="M93 43C93 43.5523 92.5523 44 92 44C91.4477 44 91 43.5523 91 43C91 42.4477 91.4477 42 92 42C92.5523 42 93 42.4477 93 43Z" fill="#9FBA3C"/>
<path d="M23 43C23 43.5523 22.5523 44 22 44C21.4477 44 21 43.5523 21 43C21 42.4477 21.4477 42 22 42C22.5523 42 23 42.4477 23 43Z" fill="#9FBA3C"/>
<path d="M79 43C79 43.5523 78.5523 44 78 44C77.4477 44 77 43.5523 77 43C77 42.4477 77.4477 42 78 42C78.5523 42 79 42.4477 79 43Z" fill="#9FBA3C"/>
<path d="M51 43C51 43.5523 50.5523 44 50 44C49.4477 44 49 43.5523 49 43C49 42.4477 49.4477 42 50 42C50.5523 42 51 42.4477 51 43Z" fill="#9FBA3C"/>
<path d="M107 43C107 43.5523 106.552 44 106 44C105.448 44 105 43.5523 105 43C105 42.4477 105.448 42 106 42C106.552 42 107 42.4477 107 43Z" fill="#9FBA3C"/>
<path d="M2 8C2 8.55228 1.55228 9 1 9C0.447715 9 0 8.55228 0 8C0 7.44772 0.447715 7 1 7C1.55228 7 2 7.44772 2 8Z" fill="#9FBA3C"/>
<path d="M58 8C58 8.55228 57.5523 9 57 9C56.4477 9 56 8.55228 56 8C56 7.44772 56.4477 7 57 7C57.5523 7 58 7.44772 58 8Z" fill="#9FBA3C"/>
<path d="M30 8C30 8.55228 29.5523 9 29 9C28.4477 9 28 8.55228 28 8C28 7.44772 28.4477 7 29 7C29.5523 7 30 7.44772 30 8Z" fill="#9FBA3C"/>
<path d="M86 8C86 8.55228 85.5523 9 85 9C84.4477 9 84 8.55228 84 8C84 7.44772 84.4477 7 85 7C85.5523 7 86 7.44772 86 8Z" fill="#9FBA3C"/>
<path d="M16 8C16 8.55228 15.5523 9 15 9C14.4477 9 14 8.55228 14 8C14 7.44772 14.4477 7 15 7C15.5523 7 16 7.44772 16 8Z" fill="#9FBA3C"/>
<path d="M72 8C72 8.55228 71.5523 9 71 9C70.4477 9 70 8.55228 70 8C70 7.44772 70.4477 7 71 7C71.5523 7 72 7.44772 72 8Z" fill="#9FBA3C"/>
<path d="M44 8C44 8.55228 43.5523 9 43 9C42.4477 9 42 8.55228 42 8C42 7.44772 42.4477 7 43 7C43.5523 7 44 7.44772 44 8Z" fill="#9FBA3C"/>
<path d="M100 8C100 8.55228 99.5523 9 99 9C98.4477 9 98 8.55228 98 8C98 7.44772 98.4477 7 99 7C99.5523 7 100 7.44772 100 8Z" fill="#9FBA3C"/>
<path d="M9 8C9 8.55228 8.55228 9 8 9C7.44772 9 7 8.55228 7 8C7 7.44772 7.44772 7 8 7C8.55228 7 9 7.44772 9 8Z" fill="#9FBA3C"/>
<path d="M65 8C65 8.55228 64.5523 9 64 9C63.4477 9 63 8.55228 63 8C63 7.44772 63.4477 7 64 7C64.5523 7 65 7.44772 65 8Z" fill="#9FBA3C"/>
<path d="M37 8C37 8.55228 36.5523 9 36 9C35.4477 9 35 8.55228 35 8C35 7.44772 35.4477 7 36 7C36.5523 7 37 7.44772 37 8Z" fill="#9FBA3C"/>
<path d="M93 8C93 8.55228 92.5523 9 92 9C91.4477 9 91 8.55228 91 8C91 7.44772 91.4477 7 92 7C92.5523 7 93 7.44772 93 8Z" fill="#9FBA3C"/>
<path d="M23 8C23 8.55228 22.5523 9 22 9C21.4477 9 21 8.55228 21 8C21 7.44772 21.4477 7 22 7C22.5523 7 23 7.44772 23 8Z" fill="#9FBA3C"/>
<path d="M79 8C79 8.55228 78.5523 9 78 9C77.4477 9 77 8.55228 77 8C77 7.44772 77.4477 7 78 7C78.5523 7 79 7.44772 79 8Z" fill="#9FBA3C"/>
<path d="M51 8C51 8.55228 50.5523 9 50 9C49.4477 9 49 8.55228 49 8C49 7.44772 49.4477 7 50 7C50.5523 7 51 7.44772 51 8Z" fill="#9FBA3C"/>
<path d="M107 8C107 8.55228 106.552 9 106 9C105.448 9 105 8.55228 105 8C105 7.44772 105.448 7 106 7C106.552 7 107 7.44772 107 8Z" fill="#9FBA3C"/>
<path d="M2 36C2 36.5523 1.55228 37 1 37C0.447715 37 0 36.5523 0 36C0 35.4477 0.447715 35 1 35C1.55228 35 2 35.4477 2 36Z" fill="#9FBA3C"/>
<path d="M58 36C58 36.5523 57.5523 37 57 37C56.4477 37 56 36.5523 56 36C56 35.4477 56.4477 35 57 35C57.5523 35 58 35.4477 58 36Z" fill="#9FBA3C"/>
<path d="M30 36C30 36.5523 29.5523 37 29 37C28.4477 37 28 36.5523 28 36C28 35.4477 28.4477 35 29 35C29.5523 35 30 35.4477 30 36Z" fill="#9FBA3C"/>
<path d="M86 36C86 36.5523 85.5523 37 85 37C84.4477 37 84 36.5523 84 36C84 35.4477 84.4477 35 85 35C85.5523 35 86 35.4477 86 36Z" fill="#9FBA3C"/>
<path d="M16 36C16 36.5523 15.5523 37 15 37C14.4477 37 14 36.5523 14 36C14 35.4477 14.4477 35 15 35C15.5523 35 16 35.4477 16 36Z" fill="#9FBA3C"/>
<path d="M72 36C72 36.5523 71.5523 37 71 37C70.4477 37 70 36.5523 70 36C70 35.4477 70.4477 35 71 35C71.5523 35 72 35.4477 72 36Z" fill="#9FBA3C"/>
<path d="M44 36C44 36.5523 43.5523 37 43 37C42.4477 37 42 36.5523 42 36C42 35.4477 42.4477 35 43 35C43.5523 35 44 35.4477 44 36Z" fill="#9FBA3C"/>
<path d="M100 36C100 36.5523 99.5523 37 99 37C98.4477 37 98 36.5523 98 36C98 35.4477 98.4477 35 99 35C99.5523 35 100 35.4477 100 36Z" fill="#9FBA3C"/>
<path d="M9 36C9 36.5523 8.55228 37 8 37C7.44772 37 7 36.5523 7 36C7 35.4477 7.44772 35 8 35C8.55228 35 9 35.4477 9 36Z" fill="#9FBA3C"/>
<path d="M65 36C65 36.5523 64.5523 37 64 37C63.4477 37 63 36.5523 63 36C63 35.4477 63.4477 35 64 35C64.5523 35 65 35.4477 65 36Z" fill="#9FBA3C"/>
<path d="M37 36C37 36.5523 36.5523 37 36 37C35.4477 37 35 36.5523 35 36C35 35.4477 35.4477 35 36 35C36.5523 35 37 35.4477 37 36Z" fill="#9FBA3C"/>
<path d="M93 36C93 36.5523 92.5523 37 92 37C91.4477 37 91 36.5523 91 36C91 35.4477 91.4477 35 92 35C92.5523 35 93 35.4477 93 36Z" fill="#9FBA3C"/>
<path d="M23 36C23 36.5523 22.5523 37 22 37C21.4477 37 21 36.5523 21 36C21 35.4477 21.4477 35 22 35C22.5523 35 23 35.4477 23 36Z" fill="#9FBA3C"/>
<path d="M79 36C79 36.5523 78.5523 37 78 37C77.4477 37 77 36.5523 77 36C77 35.4477 77.4477 35 78 35C78.5523 35 79 35.4477 79 36Z" fill="#9FBA3C"/>
<path d="M51 36C51 36.5523 50.5523 37 50 37C49.4477 37 49 36.5523 49 36C49 35.4477 49.4477 35 50 35C50.5523 35 51 35.4477 51 36Z" fill="#9FBA3C"/>
<path d="M107 36C107 36.5523 106.552 37 106 37C105.448 37 105 36.5523 105 36C105 35.4477 105.448 35 106 35C106.552 35 107 35.4477 107 36Z" fill="#9FBA3C"/>
<path d="M2 22C2 22.5523 1.55228 23 1 23C0.447715 23 0 22.5523 0 22C0 21.4477 0.447715 21 1 21C1.55228 21 2 21.4477 2 22Z" fill="#9FBA3C"/>
<path d="M58 22C58 22.5523 57.5523 23 57 23C56.4477 23 56 22.5523 56 22C56 21.4477 56.4477 21 57 21C57.5523 21 58 21.4477 58 22Z" fill="#9FBA3C"/>
<path d="M30 22C30 22.5523 29.5523 23 29 23C28.4477 23 28 22.5523 28 22C28 21.4477 28.4477 21 29 21C29.5523 21 30 21.4477 30 22Z" fill="#9FBA3C"/>
<path d="M86 22C86 22.5523 85.5523 23 85 23C84.4477 23 84 22.5523 84 22C84 21.4477 84.4477 21 85 21C85.5523 21 86 21.4477 86 22Z" fill="#9FBA3C"/>
<path d="M16 22C16 22.5523 15.5523 23 15 23C14.4477 23 14 22.5523 14 22C14 21.4477 14.4477 21 15 21C15.5523 21 16 21.4477 16 22Z" fill="#9FBA3C"/>
<path d="M72 22C72 22.5523 71.5523 23 71 23C70.4477 23 70 22.5523 70 22C70 21.4477 70.4477 21 71 21C71.5523 21 72 21.4477 72 22Z" fill="#9FBA3C"/>
<path d="M44 22C44 22.5523 43.5523 23 43 23C42.4477 23 42 22.5523 42 22C42 21.4477 42.4477 21 43 21C43.5523 21 44 21.4477 44 22Z" fill="#9FBA3C"/>
<path d="M100 22C100 22.5523 99.5523 23 99 23C98.4477 23 98 22.5523 98 22C98 21.4477 98.4477 21 99 21C99.5523 21 100 21.4477 100 22Z" fill="#9FBA3C"/>
<path d="M9 22C9 22.5523 8.55228 23 8 23C7.44772 23 7 22.5523 7 22C7 21.4477 7.44772 21 8 21C8.55228 21 9 21.4477 9 22Z" fill="#9FBA3C"/>
<path d="M65 22C65 22.5523 64.5523 23 64 23C63.4477 23 63 22.5523 63 22C63 21.4477 63.4477 21 64 21C64.5523 21 65 21.4477 65 22Z" fill="#9FBA3C"/>
<path d="M37 22C37 22.5523 36.5523 23 36 23C35.4477 23 35 22.5523 35 22C35 21.4477 35.4477 21 36 21C36.5523 21 37 21.4477 37 22Z" fill="#9FBA3C"/>
<path d="M93 22C93 22.5523 92.5523 23 92 23C91.4477 23 91 22.5523 91 22C91 21.4477 91.4477 21 92 21C92.5523 21 93 21.4477 93 22Z" fill="#9FBA3C"/>
<path d="M23 22C23 22.5523 22.5523 23 22 23C21.4477 23 21 22.5523 21 22C21 21.4477 21.4477 21 22 21C22.5523 21 23 21.4477 23 22Z" fill="#9FBA3C"/>
<path d="M79 22C79 22.5523 78.5523 23 78 23C77.4477 23 77 22.5523 77 22C77 21.4477 77.4477 21 78 21C78.5523 21 79 21.4477 79 22Z" fill="#9FBA3C"/>
<path d="M51 22C51 22.5523 50.5523 23 50 23C49.4477 23 49 22.5523 49 22C49 21.4477 49.4477 21 50 21C50.5523 21 51 21.4477 51 22Z" fill="#9FBA3C"/>
<path d="M107 22C107 22.5523 106.552 23 106 23C105.448 23 105 22.5523 105 22C105 21.4477 105.448 21 106 21C106.552 21 107 21.4477 107 22Z" fill="#9FBA3C"/>
<path d="M2 50C2 50.5523 1.55228 51 1 51C0.447715 51 0 50.5523 0 50C0 49.4477 0.447715 49 1 49C1.55228 49 2 49.4477 2 50Z" fill="#9FBA3C"/>
<path d="M58 50C58 50.5523 57.5523 51 57 51C56.4477 51 56 50.5523 56 50C56 49.4477 56.4477 49 57 49C57.5523 49 58 49.4477 58 50Z" fill="#9FBA3C"/>
<path d="M30 50C30 50.5523 29.5523 51 29 51C28.4477 51 28 50.5523 28 50C28 49.4477 28.4477 49 29 49C29.5523 49 30 49.4477 30 50Z" fill="#9FBA3C"/>
<path d="M86 50C86 50.5523 85.5523 51 85 51C84.4477 51 84 50.5523 84 50C84 49.4477 84.4477 49 85 49C85.5523 49 86 49.4477 86 50Z" fill="#9FBA3C"/>
<path d="M16 50C16 50.5523 15.5523 51 15 51C14.4477 51 14 50.5523 14 50C14 49.4477 14.4477 49 15 49C15.5523 49 16 49.4477 16 50Z" fill="#9FBA3C"/>
<path d="M72 50C72 50.5523 71.5523 51 71 51C70.4477 51 70 50.5523 70 50C70 49.4477 70.4477 49 71 49C71.5523 49 72 49.4477 72 50Z" fill="#9FBA3C"/>
<path d="M44 50C44 50.5523 43.5523 51 43 51C42.4477 51 42 50.5523 42 50C42 49.4477 42.4477 49 43 49C43.5523 49 44 49.4477 44 50Z" fill="#9FBA3C"/>
<path d="M100 50C100 50.5523 99.5523 51 99 51C98.4477 51 98 50.5523 98 50C98 49.4477 98.4477 49 99 49C99.5523 49 100 49.4477 100 50Z" fill="#9FBA3C"/>
<path d="M9 50C9 50.5523 8.55228 51 8 51C7.44772 51 7 50.5523 7 50C7 49.4477 7.44772 49 8 49C8.55228 49 9 49.4477 9 50Z" fill="#9FBA3C"/>
<path d="M65 50C65 50.5523 64.5523 51 64 51C63.4477 51 63 50.5523 63 50C63 49.4477 63.4477 49 64 49C64.5523 49 65 49.4477 65 50Z" fill="#9FBA3C"/>
<path d="M37 50C37 50.5523 36.5523 51 36 51C35.4477 51 35 50.5523 35 50C35 49.4477 35.4477 49 36 49C36.5523 49 37 49.4477 37 50Z" fill="#9FBA3C"/>
<path d="M93 50C93 50.5523 92.5523 51 92 51C91.4477 51 91 50.5523 91 50C91 49.4477 91.4477 49 92 49C92.5523 49 93 49.4477 93 50Z" fill="#9FBA3C"/>
<path d="M23 50C23 50.5523 22.5523 51 22 51C21.4477 51 21 50.5523 21 50C21 49.4477 21.4477 49 22 49C22.5523 49 23 49.4477 23 50Z" fill="#9FBA3C"/>
<path d="M79 50C79 50.5523 78.5523 51 78 51C77.4477 51 77 50.5523 77 50C77 49.4477 77.4477 49 78 49C78.5523 49 79 49.4477 79 50Z" fill="#9FBA3C"/>
<path d="M51 50C51 50.5523 50.5523 51 50 51C49.4477 51 49 50.5523 49 50C49 49.4477 49.4477 49 50 49C50.5523 49 51 49.4477 51 50Z" fill="#9FBA3C"/>
<path d="M107 50C107 50.5523 106.552 51 106 51C105.448 51 105 50.5523 105 50C105 49.4477 105.448 49 106 49C106.552 49 107 49.4477 107 50Z" fill="#9FBA3C"/>
</svg>
